<?xml version="1.0" standalone="no"?><!DOCTYPE svg PUBLIC "-//W3C//DTD SVG 1.1//EN" "http://www.w3.org/Graphics/SVG/1.1/DTD/svg11.dtd"><svg t="1618605812499" class="icon" viewBox="0 0 1024 1024" version="1.1" xmlns="http://www.w3.org/2000/svg" p-id="9493" xmlns:xlink="http://www.w3.org/1999/xlink" width="200" height="200"><defs><style type="text/css"></style></defs><path d="M728.235 352.768L550.263 104.516a47.104 47.104 0 0 0-76.595 0L295.663 352.768l-206.54-67.72a47.104 47.104 0 0 0-60.553 55.637l108.885 461.312a17.818 17.818 0 0 0 17.544 13.414H869.41c8.158 0 15.36-5.495 17.51-13.414l108.51-461.415a47.104 47.104 0 0 0-60.552-55.535l-206.643 67.721z" fill="#FEC675" p-id="9494"></path><path d="M728.235 352.768L543.164 94.618a17.067 17.067 0 0 0-30.925 10.035l3.584 710.758h353.553c8.158 0 15.36-5.495 17.51-13.414l108.51-461.415a47.104 47.104 0 0 0-60.552-55.535L728.2 352.768z" fill="#FFDBA5" p-id="9495"></path><path d="M692.224 468.48l-154.35 212.685c-5.019 8.362-15.02 13.38-25.703 12.834h-75.094L372.77 474.897a24.576 24.576 0 0 0-17.135-14.95l-25.668-8.5H449.98l49.288 161.52 107.179-135.92a13.039 13.039 0 0 0 0.239-11.195 15.53 15.53 0 0 0-8.772-7.987l-19.286-6.418h100.728a13.483 13.483 0 0 1 12.527 4.882 10.24 10.24 0 0 1 0.341 12.151z" fill="#A97539" p-id="9496"></path></svg>