<svg xmlns="http://www.w3.org/2000/svg" viewBox="0 0 48 42"><defs><linearGradient x1="100.001%" y1="49.999%" x2="-.001%" y2="49.999%" id="pricing-panel-vip_svg__a"><stop stop-color="#FFC162" offset="0%"></stop><stop stop-color="#FFDB95" offset="100%"></stop></linearGradient></defs><g fill="none" fill-rule="evenodd"><path d="M34.4 4.003c-3.482.058-6.964.014-10.45.014-3.662 0-7.328-.018-10.994.006-2.244.016-4.058.954-5.296 2.79-2.398 3.564-4.744 7.164-7.094 10.76-.922 1.414-.688 3.612.496 4.874 1.622 1.724 3.258 3.436 4.892 5.146 3.318 3.474 6.64 6.944 9.958 10.414 1.918 2.004 3.81 4.03 5.75 6.012.718.734 1.488 1.106 2.262 1.124h.116c.786-.018 1.576-.4 2.32-1.14.434-.43.838-.884 1.26-1.326 3.564-3.732 7.128-7.468 10.696-11.202 2.696-2.816 5.394-5.636 8.098-8.446 1.922-1.996 2.082-3.864.56-6.162-2.046-3.092-4.106-6.18-6.086-9.314C39.406 5.205 37.378 4 34.574 4c-.058 0-.116 0-.174.002" fill="url(#pricing-panel-vip_svg__a)" transform="translate(0 -4)"></path><path d="M23.717 21.882c-.042-.136-.066-.184-.07-.234-.318-3.344-.636-6.686-.952-10.03-.104-1.096-.602-1.552-1.722-1.558-1.458-.006-2.912.014-4.37-.01-.448-.006-.628.16-.6.628.956.202 1.294.918 1.396 1.778.428 3.67.84 7.342 1.26 11.014.154 1.34.312 2.678.476 4.074 1.642 0 3.236-.018 4.83.01.452.008.674-.168.898-.52 2.07-3.274 4.16-6.534 6.242-9.802 1.262-1.976 2.526-3.952 3.77-5.938.396-.634.186-1.07-.546-1.216a3.521 3.521 0 00-.662-.066c-1.618-.006-3.236.01-4.854-.012-.472-.006-.66.176-.652.646.126.038.26.07.386.118.63.232.782.54.548 1.15-.062.166-.154.324-.238.48-1.054 1.962-2.106 3.922-3.166 5.88-.64 1.184-1.29 2.36-1.974 3.608" fill="#8D3800"></path></g></svg>