<svg xmlns="http://www.w3.org/2000/svg" width="70" height="70" viewBox="0 0 70 70">
  <path fill="#EF4149" d="M61.4711432,16.4711432 C86.3239569,16.4711432 106.471143,36.6183294 106.471143,61.4711432 C106.471143,86.3239569 86.3239569,106.471143 61.4711432,106.471143 C36.6183294,106.471143 16.4711432,86.3239569 16.4711432,61.4711432 C16.4711432,36.6183294 36.6183294,16.4711432 61.4711432,16.4711432 Z M61.4711432,21.2079853 C39.2344151,21.2079853 21.2079853,39.2344151 21.2079853,61.4711432 C21.2079853,83.7078713 39.2344151,101.734301 61.4711432,101.734301 C83.7078713,101.734301 101.734301,83.7078713 101.734301,61.4711432 C101.734301,39.2344151 83.7078713,21.2079853 61.4711432,21.2079853 Z M62.1541559,25.1541559 C82.3125492,25.1541559 98.6541559,41.4957625 98.6541559,61.6541559 C98.6541559,81.8125492 82.3125492,98.1541559 62.1541559,98.1541559 C41.9957625,98.1541559 25.6541559,81.8125492 25.6541559,61.6541559 C25.6541559,41.4957625 41.9957625,25.1541559 62.1541559,25.1541559 Z M62.1541559,26.3315752 C42.6460333,26.3315752 26.8315752,42.1460333 26.8315752,61.6541559 C26.8315752,81.1622785 42.6460333,96.9767365 62.1541559,96.9767365 C81.6622785,96.9767365 97.4767365,81.1622785 97.4767365,61.6541559 C97.4767365,42.1460333 81.6622785,26.3315752 62.1541559,26.3315752 Z M60.4299284,37.4711432 L64.1262408,37.9366604 C63.6056334,40.9366604 62.9288438,43.7297639 62.095872,46.3159708 L62.095872,46.3159708 L72.6642017,46.3159708 L70.0091041,44.8159708 C71.6750477,42.7470052 73.0286269,40.3676949 74.1219024,37.6263156 L74.1219024,37.6263156 L77.2455466,38.7642466 C76.0481497,41.6607983 74.590449,44.143557 72.820384,46.3159708 L72.820384,46.3159708 L80.9939197,46.3159708 L80.9939197,49.6263156 L60.8464143,49.6263156 C60.0134425,51.643557 59.0242885,53.5573501 57.9830738,55.3159708 L57.9830738,55.3159708 L83.8572603,55.3159708 L83.8572603,58.7297639 L72.4559588,58.7297639 C75.1110564,62.2470052 79.4320976,65.4539018 85.4711432,68.2470052 L85.4711432,68.2470052 L83.0763492,71.2987294 C80.0568265,69.5918328 77.5058503,67.8332121 75.3192994,66.0745914 C75.1631171,70.6263156 74.9028135,74.3504535 74.5383883,77.1952811 C74.1219024,80.0918328 73.3930521,82.1090742 72.4038981,83.2470052 C71.414744,84.3332121 69.8529219,84.9539018 67.7184317,85.0573501 L67.7184317,85.0573501 L59.9613818,85.0573501 L58.9722278,81.5918328 C61.4190824,81.6952811 63.7097549,81.7470052 65.8963059,81.7470052 C68.0828568,81.7470052 69.5405575,80.9711432 70.2694078,79.419419 C70.9982581,77.7642466 71.4668048,74.3504535 71.6750477,69.0745914 L71.6750477,69.0745914 L58.920167,69.0745914 C57.8789523,72.9539018 56.4212516,76.0573501 54.5991258,78.3849363 C52.3605141,80.9711432 49.0286269,83.3504535 44.5514035,85.4711432 L44.5514035,85.4711432 L42.2086703,82.5228673 C46.2694078,80.7642466 49.3409913,78.7987294 51.4234208,76.6780397 C53.1934859,74.7125225 54.4950043,72.1780397 55.4320976,69.0745914 L55.4320976,69.0745914 L48.0915336,69.0745914 L48.0915336,66.281488 C45.436436,68.2987294 42.5730954,70.0573501 39.5535727,71.5056259 L39.5535727,71.5056259 L37.4711432,68.3504535 C42.9895813,65.9711432 47.5709263,62.7642466 51.1631171,58.7297639 L51.1631171,58.7297639 L39.085026,58.7297639 L39.085026,55.3159708 L53.8182148,55.3159708 C55.0156117,53.5056259 56.0568265,51.5918328 56.941859,49.6263156 L56.941859,49.6263156 L41.9483666,49.6263156 L41.9483666,46.3159708 L58.2954382,46.3159708 C59.2325315,43.5228673 59.909321,40.5745914 60.4299284,37.4711432 L60.4299284,37.4711432 Z M68.6555249,58.7297639 L55.6403406,58.7297639 C53.6620325,61.3159708 51.4234208,63.643557 48.9245054,65.6607983 L48.9245054,65.6607983 L74.8507527,65.6607983 C72.1435944,63.3849363 70.1132256,61.1090742 68.6555249,58.7297639 L68.6555249,58.7297639 Z M49.3930521,37.9366604 C50.8507527,40.1090742 52.1522712,42.3849363 53.1934859,44.8676949 L53.1934859,44.8676949 L50.1739631,46.2642466 C48.9245054,43.5228673 47.622987,41.0918328 46.1652863,38.9711432 L46.1652863,38.9711432 Z" opacity=".2" transform="rotate(30 122.514 13.115)"/>
</svg>
